# xmcd
#
# Track frame offsets:
#	150
#	23904
#	49042
#	78499
#	108662
#	127858
#	147584
#	173830
#	191404
#	210978
#
# Disc length: 3139 seconds
#
# Revision: 1
# Processed by: cddbd v1.5.2PL0 Copyright (c) Steve Scherf et al.
# Submitted via: EZCDAudioConverter 8.0.2.1
#
DISCID=840c410a
DTITLE=Hương Lan, Nhật Trường - st. Song Ngọc. Đàn Ông Đàn Bà
DYEAR=1998
DGENRE=Contemporary Pop
TTITLE0=Nhat Truong and Huong Lan - Bao giờ anh đưa em đi chùa Hương
TTITLE1=Nhật Trường - Đàn Bà
TTITLE2=Hương Lan - Đàn Ông
TTITLE3=Nhật Trường - Ngày tháng lang thang
TTITLE4=Nhật Trường - Mai tôi đi
TTITLE5=Nhật Trường - Hiến chương tình yêu
TTITLE6=Hương Lan - Nỗi lòng người viễn xứ
TTITLE7=Nhật Trường - Tình gian dối
TTITLE8=Hương Lan - Người em viễn xứ
TTITLE9=Nhật Trường - Sẽ không bao giờ
EXTD=
EXTT0=
EXTT1=
EXTT2=
EXTT3=
EXTT4=
EXTT5=
EXTT6=
EXTT7=
EXTT8=
EXTT9=
PLAYORDER=
